<mxfile host="app.diagrams.net" modified="2021-10-19T13:24:02.953Z" agent="5.0 (Windows)" etag="I500HZqTGRA4gcBPiG4h" version="14.6.11" type="github">
  <diagram name="Page-1" id="edf60f1a-56cd-e834-aa8a-f176f3a09ee4">
    <mxGraphModel dx="800" dy="480" grid="1" gridSize="10" guides="1" tooltips="1" connect="1" arrows="1" fold="1" page="1" pageScale="1" pageWidth="1100" pageHeight="850" background="none" math="0" shadow="0">
      <root>
        <mxCell id="0" />
        <mxCell id="1" parent="0" />
        <mxCell id="_PhLCO9Q2bOIfNgRdVM_-5" style="edgeStyle=orthogonalEdgeStyle;rounded=0;orthogonalLoop=1;jettySize=auto;html=1;exitX=0.5;exitY=1;exitDx=0;exitDy=0;entryX=0.5;entryY=0;entryDx=0;entryDy=0;" edge="1" parent="1" source="_PhLCO9Q2bOIfNgRdVM_-1" target="_PhLCO9Q2bOIfNgRdVM_-14">
          <mxGeometry relative="1" as="geometry" />
        </mxCell>
        <mxCell id="_PhLCO9Q2bOIfNgRdVM_-1" value="Разбор конф. файла." style="rounded=0;whiteSpace=wrap;html=1;" vertex="1" parent="1">
          <mxGeometry x="360" y="80" width="120" height="60" as="geometry" />
        </mxCell>
        <mxCell id="_PhLCO9Q2bOIfNgRdVM_-6" style="edgeStyle=orthogonalEdgeStyle;rounded=0;orthogonalLoop=1;jettySize=auto;html=1;exitX=0;exitY=0.5;exitDx=0;exitDy=0;entryX=1;entryY=0.5;entryDx=0;entryDy=0;" edge="1" parent="1" source="_PhLCO9Q2bOIfNgRdVM_-2" target="_PhLCO9Q2bOIfNgRdVM_-3">
          <mxGeometry relative="1" as="geometry" />
        </mxCell>
        <mxCell id="_PhLCO9Q2bOIfNgRdVM_-18" style="edgeStyle=orthogonalEdgeStyle;rounded=0;orthogonalLoop=1;jettySize=auto;html=1;exitX=0.5;exitY=1;exitDx=0;exitDy=0;" edge="1" parent="1" source="_PhLCO9Q2bOIfNgRdVM_-2" target="_PhLCO9Q2bOIfNgRdVM_-16">
          <mxGeometry relative="1" as="geometry" />
        </mxCell>
        <mxCell id="_PhLCO9Q2bOIfNgRdVM_-2" value="&lt;div&gt;Есть&lt;/div&gt;&lt;div&gt;decs ?&lt;br&gt;&lt;/div&gt;" style="rhombus;whiteSpace=wrap;html=1;" vertex="1" parent="1">
          <mxGeometry x="365" y="260" width="110" height="110" as="geometry" />
        </mxCell>
        <mxCell id="_PhLCO9Q2bOIfNgRdVM_-3" value="Выкинуть исключение. Invalid block section." style="rounded=0;whiteSpace=wrap;html=1;" vertex="1" parent="1">
          <mxGeometry x="160" y="285" width="120" height="60" as="geometry" />
        </mxCell>
        <mxCell id="_PhLCO9Q2bOIfNgRdVM_-7" value="Нет" style="text;html=1;strokeColor=none;fillColor=none;align=center;verticalAlign=middle;whiteSpace=wrap;rounded=0;" vertex="1" parent="1">
          <mxGeometry x="310" y="290" width="40" height="20" as="geometry" />
        </mxCell>
        <mxCell id="_PhLCO9Q2bOIfNgRdVM_-8" value="Передача текста осуществляется массивом строк" style="rounded=0;whiteSpace=wrap;html=1;" vertex="1" parent="1">
          <mxGeometry x="140" y="10" width="120" height="60" as="geometry" />
        </mxCell>
        <mxCell id="_PhLCO9Q2bOIfNgRdVM_-20" style="edgeStyle=orthogonalEdgeStyle;rounded=0;orthogonalLoop=1;jettySize=auto;html=1;exitX=0;exitY=0.5;exitDx=0;exitDy=0;entryX=1;entryY=0.5;entryDx=0;entryDy=0;" edge="1" parent="1" source="_PhLCO9Q2bOIfNgRdVM_-13" target="_PhLCO9Q2bOIfNgRdVM_-19">
          <mxGeometry relative="1" as="geometry" />
        </mxCell>
        <mxCell id="_PhLCO9Q2bOIfNgRdVM_-13" value="Был достигнут конец файла?" style="rhombus;whiteSpace=wrap;html=1;" vertex="1" parent="1">
          <mxGeometry x="365" y="490" width="110" height="120" as="geometry" />
        </mxCell>
        <mxCell id="_PhLCO9Q2bOIfNgRdVM_-15" style="edgeStyle=orthogonalEdgeStyle;rounded=0;orthogonalLoop=1;jettySize=auto;html=1;exitX=0.5;exitY=1;exitDx=0;exitDy=0;entryX=0.5;entryY=0;entryDx=0;entryDy=0;" edge="1" parent="1" source="_PhLCO9Q2bOIfNgRdVM_-14" target="_PhLCO9Q2bOIfNgRdVM_-2">
          <mxGeometry relative="1" as="geometry" />
        </mxCell>
        <mxCell id="_PhLCO9Q2bOIfNgRdVM_-14" value="Читаем строку" style="rounded=0;whiteSpace=wrap;html=1;" vertex="1" parent="1">
          <mxGeometry x="360" y="170" width="120" height="60" as="geometry" />
        </mxCell>
        <mxCell id="_PhLCO9Q2bOIfNgRdVM_-21" style="edgeStyle=orthogonalEdgeStyle;rounded=0;orthogonalLoop=1;jettySize=auto;html=1;exitX=0.5;exitY=1;exitDx=0;exitDy=0;" edge="1" parent="1" source="_PhLCO9Q2bOIfNgRdVM_-16" target="_PhLCO9Q2bOIfNgRdVM_-13">
          <mxGeometry relative="1" as="geometry" />
        </mxCell>
        <mxCell id="_PhLCO9Q2bOIfNgRdVM_-16" value="Читаем строку" style="rounded=0;whiteSpace=wrap;html=1;" vertex="1" parent="1">
          <mxGeometry x="360" y="405" width="120" height="60" as="geometry" />
        </mxCell>
        <mxCell id="_PhLCO9Q2bOIfNgRdVM_-19" value="Выкинуть исключение. Invalid block section." style="rounded=0;whiteSpace=wrap;html=1;" vertex="1" parent="1">
          <mxGeometry x="170" y="520" width="120" height="60" as="geometry" />
        </mxCell>
        <mxCell id="_PhLCO9Q2bOIfNgRdVM_-22" value="Да" style="text;html=1;strokeColor=none;fillColor=none;align=center;verticalAlign=middle;whiteSpace=wrap;rounded=0;" vertex="1" parent="1">
          <mxGeometry x="310" y="530" width="40" height="20" as="geometry" />
        </mxCell>
        <mxCell id="_PhLCO9Q2bOIfNgRdVM_-24" value="" style="endArrow=classic;html=1;exitX=0.5;exitY=1;exitDx=0;exitDy=0;entryX=0.5;entryY=0;entryDx=0;entryDy=0;" edge="1" parent="1" source="_PhLCO9Q2bOIfNgRdVM_-13">
          <mxGeometry width="50" height="50" relative="1" as="geometry">
            <mxPoint x="390" y="680" as="sourcePoint" />
            <mxPoint x="420" y="660" as="targetPoint" />
          </mxGeometry>
        </mxCell>
        <mxCell id="_PhLCO9Q2bOIfNgRdVM_-25" value="Нет" style="text;html=1;strokeColor=none;fillColor=none;align=center;verticalAlign=middle;whiteSpace=wrap;rounded=0;" vertex="1" parent="1">
          <mxGeometry x="420" y="620" width="40" height="20" as="geometry" />
        </mxCell>
        <mxCell id="_PhLCO9Q2bOIfNgRdVM_-27" style="edgeStyle=orthogonalEdgeStyle;rounded=0;orthogonalLoop=1;jettySize=auto;html=1;exitX=1;exitY=0.5;exitDx=0;exitDy=0;" edge="1" parent="1" source="_PhLCO9Q2bOIfNgRdVM_-26">
          <mxGeometry relative="1" as="geometry">
            <mxPoint x="520" y="710" as="targetPoint" />
          </mxGeometry>
        </mxCell>
        <mxCell id="_PhLCO9Q2bOIfNgRdVM_-26" value="Нашли csed?" style="rhombus;whiteSpace=wrap;html=1;" vertex="1" parent="1">
          <mxGeometry x="365" y="660" width="110" height="100" as="geometry" />
        </mxCell>
        <mxCell id="_PhLCO9Q2bOIfNgRdVM_-28" value="Нет" style="text;html=1;strokeColor=none;fillColor=none;align=center;verticalAlign=middle;whiteSpace=wrap;rounded=0;" vertex="1" parent="1">
          <mxGeometry x="475" y="680" width="40" height="20" as="geometry" />
        </mxCell>
      </root>
    </mxGraphModel>
  </diagram>
</mxfile>
